<mxfile host="app.diagrams.net" agent="Mozilla/5.0 (X11; Linux x86_64; rv:133.0) Gecko/20100101 Firefox/133.0" version="25.0.3">
  <diagram id="C5RBs43oDa-KdzZeNtuy" name="Page-1">
    <mxGraphModel dx="1041" dy="1755" grid="1" gridSize="10" guides="1" tooltips="1" connect="1" arrows="1" fold="1" page="1" pageScale="1" pageWidth="827" pageHeight="1169" math="0" shadow="0">
      <root>
        <mxCell id="WIyWlLk6GJQsqaUBKTNV-0" />
        <mxCell id="WIyWlLk6GJQsqaUBKTNV-1" parent="WIyWlLk6GJQsqaUBKTNV-0" />
        <mxCell id="zkfFHV4jXpPFQw0GAbJ--6" value="Car" style="swimlane;fontStyle=0;align=center;verticalAlign=top;childLayout=stackLayout;horizontal=1;startSize=26;horizontalStack=0;resizeParent=1;resizeLast=0;collapsible=1;marginBottom=0;rounded=0;shadow=0;strokeWidth=1;" parent="WIyWlLk6GJQsqaUBKTNV-1" vertex="1">
          <mxGeometry x="295" y="-190" width="160" height="140" as="geometry">
            <mxRectangle x="130" y="380" width="160" height="26" as="alternateBounds" />
          </mxGeometry>
        </mxCell>
        <mxCell id="zkfFHV4jXpPFQw0GAbJ--9" value="" style="line;html=1;strokeWidth=1;align=left;verticalAlign=middle;spacingTop=-1;spacingLeft=3;spacingRight=3;rotatable=0;labelPosition=right;points=[];portConstraint=eastwest;" parent="zkfFHV4jXpPFQw0GAbJ--6" vertex="1">
          <mxGeometry y="26" width="160" height="8" as="geometry" />
        </mxCell>
        <mxCell id="qYE4wkv7r3WHgoEgIhjc-82" value="+ interact()" style="text;strokeColor=none;fillColor=none;align=left;verticalAlign=top;spacingLeft=4;spacingRight=4;overflow=hidden;rotatable=0;points=[[0,0.5],[1,0.5]];portConstraint=eastwest;whiteSpace=wrap;html=1;" parent="zkfFHV4jXpPFQw0GAbJ--6" vertex="1">
          <mxGeometry y="34" width="160" height="26" as="geometry" />
        </mxCell>
        <mxCell id="qYE4wkv7r3WHgoEgIhjc-152" value="- goRoomCetner()" style="text;strokeColor=none;fillColor=none;align=left;verticalAlign=top;spacingLeft=4;spacingRight=4;overflow=hidden;rotatable=0;points=[[0,0.5],[1,0.5]];portConstraint=eastwest;whiteSpace=wrap;html=1;" parent="zkfFHV4jXpPFQw0GAbJ--6" vertex="1">
          <mxGeometry y="60" width="160" height="26" as="geometry" />
        </mxCell>
        <mxCell id="qYE4wkv7r3WHgoEgIhjc-135" value="&lt;div&gt;- rotate()&lt;/div&gt;" style="text;strokeColor=none;fillColor=none;align=left;verticalAlign=top;spacingLeft=4;spacingRight=4;overflow=hidden;rotatable=0;points=[[0,0.5],[1,0.5]];portConstraint=eastwest;whiteSpace=wrap;html=1;" parent="zkfFHV4jXpPFQw0GAbJ--6" vertex="1">
          <mxGeometry y="86" width="160" height="26" as="geometry" />
        </mxCell>
        <mxCell id="qYE4wkv7r3WHgoEgIhjc-136" value="&lt;div&gt;- goToDoor()&lt;/div&gt;" style="text;strokeColor=none;fillColor=none;align=left;verticalAlign=top;spacingLeft=4;spacingRight=4;overflow=hidden;rotatable=0;points=[[0,0.5],[1,0.5]];portConstraint=eastwest;whiteSpace=wrap;html=1;" parent="zkfFHV4jXpPFQw0GAbJ--6" vertex="1">
          <mxGeometry y="112" width="160" height="26" as="geometry" />
        </mxCell>
        <mxCell id="aAsVR65s4MKF9mWneRJd-0" value="&lt;div&gt;&amp;lt;&amp;lt;interface&amp;gt;&amp;gt;&lt;/div&gt;&lt;div&gt;Cleaner&lt;/div&gt;&lt;div&gt;&lt;br&gt;&lt;/div&gt;" style="swimlane;fontStyle=1;align=center;verticalAlign=top;childLayout=stackLayout;horizontal=1;startSize=39;horizontalStack=0;resizeParent=1;resizeParentMax=0;resizeLast=0;collapsible=1;marginBottom=0;whiteSpace=wrap;html=1;strokeColor=#000000;" parent="WIyWlLk6GJQsqaUBKTNV-1" vertex="1">
          <mxGeometry x="80" y="-170" width="180" height="80" as="geometry" />
        </mxCell>
        <mxCell id="aAsVR65s4MKF9mWneRJd-1" value="" style="line;strokeWidth=1;fillColor=none;align=left;verticalAlign=middle;spacingTop=-1;spacingLeft=3;spacingRight=3;rotatable=0;labelPosition=right;points=[];portConstraint=eastwest;strokeColor=inherit;" parent="aAsVR65s4MKF9mWneRJd-0" vertex="1">
          <mxGeometry y="39" width="180" height="8" as="geometry" />
        </mxCell>
        <mxCell id="aAsVR65s4MKF9mWneRJd-3" value="+ clean(Room room)" style="text;strokeColor=none;fillColor=none;align=left;verticalAlign=top;spacingLeft=4;spacingRight=4;overflow=hidden;rotatable=0;points=[[0,0.5],[1,0.5]];portConstraint=eastwest;whiteSpace=wrap;html=1;" parent="aAsVR65s4MKF9mWneRJd-0" vertex="1">
          <mxGeometry y="47" width="180" height="33" as="geometry" />
        </mxCell>
        <mxCell id="aAsVR65s4MKF9mWneRJd-175" style="edgeStyle=orthogonalEdgeStyle;rounded=0;orthogonalLoop=1;jettySize=auto;html=1;exitX=1;exitY=0.5;exitDx=0;exitDy=0;" parent="aAsVR65s4MKF9mWneRJd-0" edge="1">
          <mxGeometry relative="1" as="geometry">
            <mxPoint x="210" y="60.000000000000455" as="sourcePoint" />
            <mxPoint x="210" y="60.000000000000455" as="targetPoint" />
          </mxGeometry>
        </mxCell>
        <mxCell id="aAsVR65s4MKF9mWneRJd-5" value="Room" style="swimlane;fontStyle=0;align=center;verticalAlign=top;childLayout=stackLayout;horizontal=1;startSize=26;horizontalStack=0;resizeParent=1;resizeLast=0;collapsible=1;marginBottom=0;rounded=0;shadow=0;strokeWidth=1;" parent="WIyWlLk6GJQsqaUBKTNV-1" vertex="1">
          <mxGeometry x="820" y="-600" width="470" height="190" as="geometry">
            <mxRectangle x="130" y="380" width="160" height="26" as="alternateBounds" />
          </mxGeometry>
        </mxCell>
        <mxCell id="aAsVR65s4MKF9mWneRJd-7" value="- form: Polygon" style="text;align=left;verticalAlign=top;spacingLeft=4;spacingRight=4;overflow=hidden;rotatable=0;points=[[0,0.5],[1,0.5]];portConstraint=eastwest;rounded=0;shadow=0;html=0;" parent="aAsVR65s4MKF9mWneRJd-5" vertex="1">
          <mxGeometry y="26" width="470" height="26" as="geometry" />
        </mxCell>
        <mxCell id="qYE4wkv7r3WHgoEgIhjc-138" value="- cleaners: Cleaner[]" style="text;align=left;verticalAlign=top;spacingLeft=4;spacingRight=4;overflow=hidden;rotatable=0;points=[[0,0.5],[1,0.5]];portConstraint=eastwest;rounded=0;shadow=0;html=0;" parent="aAsVR65s4MKF9mWneRJd-5" vertex="1">
          <mxGeometry y="52" width="470" height="26" as="geometry" />
        </mxCell>
        <mxCell id="aAsVR65s4MKF9mWneRJd-8" value="" style="line;html=1;strokeWidth=1;align=left;verticalAlign=middle;spacingTop=-1;spacingLeft=3;spacingRight=3;rotatable=0;labelPosition=right;points=[];portConstraint=eastwest;" parent="aAsVR65s4MKF9mWneRJd-5" vertex="1">
          <mxGeometry y="78" width="470" height="8" as="geometry" />
        </mxCell>
        <mxCell id="qYE4wkv7r3WHgoEgIhjc-186" value="+ Room(Polygon form, Cleaner[] cleaners): Room" style="text;align=left;verticalAlign=top;spacingLeft=4;spacingRight=4;overflow=hidden;rotatable=0;points=[[0,0.5],[1,0.5]];portConstraint=eastwest;rounded=0;shadow=0;html=0;" parent="aAsVR65s4MKF9mWneRJd-5" vertex="1">
          <mxGeometry y="86" width="470" height="26" as="geometry" />
        </mxCell>
        <mxCell id="qYE4wkv7r3WHgoEgIhjc-139" value="+ Room(Polygon form, Cleaner[] cleaners, Collection&lt;PhysicalObject&gt; objects): Room" style="text;align=left;verticalAlign=top;spacingLeft=4;spacingRight=4;overflow=hidden;rotatable=0;points=[[0,0.5],[1,0.5]];portConstraint=eastwest;rounded=0;shadow=0;html=0;" parent="aAsVR65s4MKF9mWneRJd-5" vertex="1">
          <mxGeometry y="112" width="470" height="26" as="geometry" />
        </mxCell>
        <mxCell id="qYE4wkv7r3WHgoEgIhjc-85" value="+ getForm(): Polygon" style="text;align=left;verticalAlign=top;spacingLeft=4;spacingRight=4;overflow=hidden;rotatable=0;points=[[0,0.5],[1,0.5]];portConstraint=eastwest;rounded=0;shadow=0;html=0;" parent="aAsVR65s4MKF9mWneRJd-5" vertex="1">
          <mxGeometry y="138" width="470" height="26" as="geometry" />
        </mxCell>
        <mxCell id="qYE4wkv7r3WHgoEgIhjc-140" value="+ cleanRoom()" style="text;align=left;verticalAlign=top;spacingLeft=4;spacingRight=4;overflow=hidden;rotatable=0;points=[[0,0.5],[1,0.5]];portConstraint=eastwest;rounded=0;shadow=0;html=0;" parent="aAsVR65s4MKF9mWneRJd-5" vertex="1">
          <mxGeometry y="164" width="470" height="26" as="geometry" />
        </mxCell>
        <mxCell id="aAsVR65s4MKF9mWneRJd-22" value="&lt;div&gt;&amp;lt;&amp;lt;record&amp;gt;&amp;gt;&lt;/div&gt;&lt;div&gt;Position&lt;/div&gt;" style="swimlane;fontStyle=1;align=center;verticalAlign=top;childLayout=stackLayout;horizontal=1;startSize=42;horizontalStack=0;resizeParent=1;resizeParentMax=0;resizeLast=0;collapsible=1;marginBottom=0;whiteSpace=wrap;html=1;" parent="WIyWlLk6GJQsqaUBKTNV-1" vertex="1">
          <mxGeometry x="1150" y="-380" width="200" height="206" as="geometry" />
        </mxCell>
        <mxCell id="aAsVR65s4MKF9mWneRJd-23" value="&lt;div&gt;+ x: float&lt;/div&gt;" style="text;strokeColor=none;fillColor=none;align=left;verticalAlign=top;spacingLeft=4;spacingRight=4;overflow=hidden;rotatable=0;points=[[0,0.5],[1,0.5]];portConstraint=eastwest;whiteSpace=wrap;html=1;" parent="aAsVR65s4MKF9mWneRJd-22" vertex="1">
          <mxGeometry y="42" width="200" height="26" as="geometry" />
        </mxCell>
        <mxCell id="aAsVR65s4MKF9mWneRJd-24" value="&lt;div&gt;+ y: float&lt;/div&gt;" style="text;strokeColor=none;fillColor=none;align=left;verticalAlign=top;spacingLeft=4;spacingRight=4;overflow=hidden;rotatable=0;points=[[0,0.5],[1,0.5]];portConstraint=eastwest;whiteSpace=wrap;html=1;" parent="aAsVR65s4MKF9mWneRJd-22" vertex="1">
          <mxGeometry y="68" width="200" height="26" as="geometry" />
        </mxCell>
        <mxCell id="aAsVR65s4MKF9mWneRJd-25" value="" style="line;strokeWidth=1;fillColor=none;align=left;verticalAlign=middle;spacingTop=-1;spacingLeft=3;spacingRight=3;rotatable=0;labelPosition=right;points=[];portConstraint=eastwest;strokeColor=inherit;" parent="aAsVR65s4MKF9mWneRJd-22" vertex="1">
          <mxGeometry y="94" width="200" height="8" as="geometry" />
        </mxCell>
        <mxCell id="aAsVR65s4MKF9mWneRJd-180" value="+ scale(float scale): Position" style="text;strokeColor=none;fillColor=none;align=left;verticalAlign=top;spacingLeft=4;spacingRight=4;overflow=hidden;rotatable=0;points=[[0,0.5],[1,0.5]];portConstraint=eastwest;whiteSpace=wrap;html=1;" parent="aAsVR65s4MKF9mWneRJd-22" vertex="1">
          <mxGeometry y="102" width="200" height="26" as="geometry" />
        </mxCell>
        <mxCell id="aAsVR65s4MKF9mWneRJd-182" value="+ differense(Position ther): Position" style="text;strokeColor=none;fillColor=none;align=left;verticalAlign=top;spacingLeft=4;spacingRight=4;overflow=hidden;rotatable=0;points=[[0,0.5],[1,0.5]];portConstraint=eastwest;whiteSpace=wrap;html=1;" parent="aAsVR65s4MKF9mWneRJd-22" vertex="1">
          <mxGeometry y="128" width="200" height="26" as="geometry" />
        </mxCell>
        <mxCell id="aAsVR65s4MKF9mWneRJd-204" value="+ distant(Position other): float" style="text;strokeColor=none;fillColor=none;align=left;verticalAlign=top;spacingLeft=4;spacingRight=4;overflow=hidden;rotatable=0;points=[[0,0.5],[1,0.5]];portConstraint=eastwest;whiteSpace=wrap;html=1;" parent="aAsVR65s4MKF9mWneRJd-22" vertex="1">
          <mxGeometry y="154" width="200" height="26" as="geometry" />
        </mxCell>
        <mxCell id="aAsVR65s4MKF9mWneRJd-181" value="+ add(Position other): Position" style="text;strokeColor=none;fillColor=none;align=left;verticalAlign=top;spacingLeft=4;spacingRight=4;overflow=hidden;rotatable=0;points=[[0,0.5],[1,0.5]];portConstraint=eastwest;whiteSpace=wrap;html=1;" parent="aAsVR65s4MKF9mWneRJd-22" vertex="1">
          <mxGeometry y="180" width="200" height="26" as="geometry" />
        </mxCell>
        <mxCell id="aAsVR65s4MKF9mWneRJd-54" value="&lt;div&gt;Polygon&lt;/div&gt;" style="swimlane;fontStyle=1;align=center;verticalAlign=top;childLayout=stackLayout;horizontal=1;startSize=30;horizontalStack=0;resizeParent=1;resizeParentMax=0;resizeLast=0;collapsible=1;marginBottom=0;whiteSpace=wrap;html=1;strokeColor=#000000;" parent="WIyWlLk6GJQsqaUBKTNV-1" vertex="1">
          <mxGeometry x="597.25" y="-560" width="170" height="210" as="geometry" />
        </mxCell>
        <mxCell id="aAsVR65s4MKF9mWneRJd-57" value="- vertices: Position[]" style="text;strokeColor=none;fillColor=none;align=left;verticalAlign=top;spacingLeft=4;spacingRight=4;overflow=hidden;rotatable=0;points=[[0,0.5],[1,0.5]];portConstraint=eastwest;whiteSpace=wrap;html=1;" parent="aAsVR65s4MKF9mWneRJd-54" vertex="1">
          <mxGeometry y="30" width="170" height="31" as="geometry" />
        </mxCell>
        <mxCell id="aAsVR65s4MKF9mWneRJd-55" value="" style="line;strokeWidth=1;fillColor=none;align=left;verticalAlign=middle;spacingTop=-1;spacingLeft=3;spacingRight=3;rotatable=0;labelPosition=right;points=[];portConstraint=eastwest;strokeColor=inherit;" parent="aAsVR65s4MKF9mWneRJd-54" vertex="1">
          <mxGeometry y="61" width="170" height="8" as="geometry" />
        </mxCell>
        <mxCell id="aAsVR65s4MKF9mWneRJd-61" value="&lt;div&gt;+ Polygon(Position[]): Polygon&lt;br&gt;&lt;/div&gt;" style="text;strokeColor=none;fillColor=none;align=left;verticalAlign=top;spacingLeft=4;spacingRight=4;overflow=hidden;rotatable=0;points=[[0,0.5],[1,0.5]];portConstraint=eastwest;whiteSpace=wrap;html=1;" parent="aAsVR65s4MKF9mWneRJd-54" vertex="1">
          <mxGeometry y="69" width="170" height="31" as="geometry" />
        </mxCell>
        <mxCell id="aAsVR65s4MKF9mWneRJd-69" value="&lt;div&gt;+ getVertices(): Position[]&lt;/div&gt;" style="text;strokeColor=none;fillColor=none;align=left;verticalAlign=top;spacingLeft=4;spacingRight=4;overflow=hidden;rotatable=0;points=[[0,0.5],[1,0.5]];portConstraint=eastwest;whiteSpace=wrap;html=1;" parent="aAsVR65s4MKF9mWneRJd-54" vertex="1">
          <mxGeometry y="100" width="170" height="31" as="geometry" />
        </mxCell>
        <mxCell id="aAsVR65s4MKF9mWneRJd-60" value="+ getArea(): float" style="text;strokeColor=none;fillColor=none;align=left;verticalAlign=top;spacingLeft=4;spacingRight=4;overflow=hidden;rotatable=0;points=[[0,0.5],[1,0.5]];portConstraint=eastwest;whiteSpace=wrap;html=1;" parent="aAsVR65s4MKF9mWneRJd-54" vertex="1">
          <mxGeometry y="131" width="170" height="26" as="geometry" />
        </mxCell>
        <mxCell id="aAsVR65s4MKF9mWneRJd-59" value="&lt;div&gt;+ getPerimeter(): float&lt;/div&gt;&lt;div&gt;&lt;br&gt;&lt;/div&gt;" style="text;strokeColor=none;fillColor=none;align=left;verticalAlign=top;spacingLeft=4;spacingRight=4;overflow=hidden;rotatable=0;points=[[0,0.5],[1,0.5]];portConstraint=eastwest;whiteSpace=wrap;html=1;" parent="aAsVR65s4MKF9mWneRJd-54" vertex="1">
          <mxGeometry y="157" width="170" height="26" as="geometry" />
        </mxCell>
        <mxCell id="aAsVR65s4MKF9mWneRJd-75" value="&lt;div&gt;+ getСenter(): Position&lt;br&gt;&lt;/div&gt;&lt;div&gt;&lt;br&gt;&lt;/div&gt;" style="text;strokeColor=none;fillColor=none;align=left;verticalAlign=top;spacingLeft=4;spacingRight=4;overflow=hidden;rotatable=0;points=[[0,0.5],[1,0.5]];portConstraint=eastwest;whiteSpace=wrap;html=1;" parent="aAsVR65s4MKF9mWneRJd-54" vertex="1">
          <mxGeometry y="183" width="170" height="27" as="geometry" />
        </mxCell>
        <mxCell id="aAsVR65s4MKF9mWneRJd-62" value="Rectangle" style="swimlane;fontStyle=1;align=center;verticalAlign=top;childLayout=stackLayout;horizontal=1;startSize=30;horizontalStack=0;resizeParent=1;resizeParentMax=0;resizeLast=0;collapsible=1;marginBottom=0;whiteSpace=wrap;html=1;strokeColor=#000000;" parent="WIyWlLk6GJQsqaUBKTNV-1" vertex="1">
          <mxGeometry x="220" y="-476" width="340" height="126" as="geometry" />
        </mxCell>
        <mxCell id="aAsVR65s4MKF9mWneRJd-64" value="" style="line;strokeWidth=1;fillColor=none;align=left;verticalAlign=middle;spacingTop=-1;spacingLeft=3;spacingRight=3;rotatable=0;labelPosition=right;points=[];portConstraint=eastwest;strokeColor=inherit;" parent="aAsVR65s4MKF9mWneRJd-62" vertex="1">
          <mxGeometry y="30" width="340" height="8" as="geometry" />
        </mxCell>
        <mxCell id="aAsVR65s4MKF9mWneRJd-73" value="&lt;div&gt;+ Rectangle(pos Position, width float, height float): Rectangle&lt;br&gt;&lt;/div&gt;" style="text;strokeColor=none;fillColor=none;align=left;verticalAlign=top;spacingLeft=4;spacingRight=4;overflow=hidden;rotatable=0;points=[[0,0.5],[1,0.5]];portConstraint=eastwest;whiteSpace=wrap;html=1;" parent="aAsVR65s4MKF9mWneRJd-62" vertex="1">
          <mxGeometry y="38" width="340" height="31" as="geometry" />
        </mxCell>
        <mxCell id="aAsVR65s4MKF9mWneRJd-65" value="&lt;div&gt;+ getHeight(): float&lt;br&gt;&lt;/div&gt;" style="text;strokeColor=none;fillColor=none;align=left;verticalAlign=top;spacingLeft=4;spacingRight=4;overflow=hidden;rotatable=0;points=[[0,0.5],[1,0.5]];portConstraint=eastwest;whiteSpace=wrap;html=1;" parent="aAsVR65s4MKF9mWneRJd-62" vertex="1">
          <mxGeometry y="69" width="340" height="31" as="geometry" />
        </mxCell>
        <mxCell id="aAsVR65s4MKF9mWneRJd-66" value="+ getWidth(): float" style="text;strokeColor=none;fillColor=none;align=left;verticalAlign=top;spacingLeft=4;spacingRight=4;overflow=hidden;rotatable=0;points=[[0,0.5],[1,0.5]];portConstraint=eastwest;whiteSpace=wrap;html=1;" parent="aAsVR65s4MKF9mWneRJd-62" vertex="1">
          <mxGeometry y="100" width="340" height="26" as="geometry" />
        </mxCell>
        <mxCell id="aAsVR65s4MKF9mWneRJd-76" value="Сircle" style="swimlane;fontStyle=1;align=center;verticalAlign=top;childLayout=stackLayout;horizontal=1;startSize=30;horizontalStack=0;resizeParent=1;resizeParentMax=0;resizeLast=0;collapsible=1;marginBottom=0;whiteSpace=wrap;html=1;strokeColor=#000000;" parent="WIyWlLk6GJQsqaUBKTNV-1" vertex="1">
          <mxGeometry x="200" y="-660" width="360" height="162" as="geometry" />
        </mxCell>
        <mxCell id="aAsVR65s4MKF9mWneRJd-77" value="" style="line;strokeWidth=1;fillColor=none;align=left;verticalAlign=middle;spacingTop=-1;spacingLeft=3;spacingRight=3;rotatable=0;labelPosition=right;points=[];portConstraint=eastwest;strokeColor=inherit;" parent="aAsVR65s4MKF9mWneRJd-76" vertex="1">
          <mxGeometry y="30" width="360" height="8" as="geometry" />
        </mxCell>
        <mxCell id="aAsVR65s4MKF9mWneRJd-78" value="&lt;div&gt;+ Circle(pos Position, radius float): Circle&lt;br&gt;&lt;/div&gt;" style="text;strokeColor=none;fillColor=none;align=left;verticalAlign=top;spacingLeft=4;spacingRight=4;overflow=hidden;rotatable=0;points=[[0,0.5],[1,0.5]];portConstraint=eastwest;whiteSpace=wrap;html=1;" parent="aAsVR65s4MKF9mWneRJd-76" vertex="1">
          <mxGeometry y="38" width="360" height="31" as="geometry" />
        </mxCell>
        <mxCell id="aAsVR65s4MKF9mWneRJd-82" value="&lt;div&gt;+ Circle(pos Position, radius float, precision int): Circle&lt;br&gt;&lt;/div&gt;" style="text;strokeColor=none;fillColor=none;align=left;verticalAlign=top;spacingLeft=4;spacingRight=4;overflow=hidden;rotatable=0;points=[[0,0.5],[1,0.5]];portConstraint=eastwest;whiteSpace=wrap;html=1;" parent="aAsVR65s4MKF9mWneRJd-76" vertex="1">
          <mxGeometry y="69" width="360" height="31" as="geometry" />
        </mxCell>
        <mxCell id="aAsVR65s4MKF9mWneRJd-79" value="&lt;div&gt;+ getRadius(): float&lt;br&gt;&lt;/div&gt;" style="text;strokeColor=none;fillColor=none;align=left;verticalAlign=top;spacingLeft=4;spacingRight=4;overflow=hidden;rotatable=0;points=[[0,0.5],[1,0.5]];portConstraint=eastwest;whiteSpace=wrap;html=1;" parent="aAsVR65s4MKF9mWneRJd-76" vertex="1">
          <mxGeometry y="100" width="360" height="31" as="geometry" />
        </mxCell>
        <mxCell id="aAsVR65s4MKF9mWneRJd-179" value="&lt;div&gt;- _calcPositions(Position pos, float radius, int precision): Position[]&lt;/div&gt;" style="text;strokeColor=none;fillColor=none;align=left;verticalAlign=top;spacingLeft=4;spacingRight=4;overflow=hidden;rotatable=0;points=[[0,0.5],[1,0.5]];portConstraint=eastwest;whiteSpace=wrap;html=1;" parent="aAsVR65s4MKF9mWneRJd-76" vertex="1">
          <mxGeometry y="131" width="360" height="31" as="geometry" />
        </mxCell>
        <mxCell id="aAsVR65s4MKF9mWneRJd-93" value="Door" style="swimlane;fontStyle=0;align=center;verticalAlign=top;childLayout=stackLayout;horizontal=1;startSize=26;horizontalStack=0;resizeParent=1;resizeLast=0;collapsible=1;marginBottom=0;rounded=0;shadow=0;strokeWidth=1;" parent="WIyWlLk6GJQsqaUBKTNV-1" vertex="1">
          <mxGeometry x="852.75" y="280" width="340" height="140" as="geometry">
            <mxRectangle x="130" y="380" width="160" height="26" as="alternateBounds" />
          </mxGeometry>
        </mxCell>
        <mxCell id="aAsVR65s4MKF9mWneRJd-101" value="- locked: bool" style="text;align=left;verticalAlign=top;spacingLeft=4;spacingRight=4;overflow=hidden;rotatable=0;points=[[0,0.5],[1,0.5]];portConstraint=eastwest;rounded=0;shadow=0;html=0;" parent="aAsVR65s4MKF9mWneRJd-93" vertex="1">
          <mxGeometry y="26" width="340" height="26" as="geometry" />
        </mxCell>
        <mxCell id="aAsVR65s4MKF9mWneRJd-97" value="" style="line;html=1;strokeWidth=1;align=left;verticalAlign=middle;spacingTop=-1;spacingLeft=3;spacingRight=3;rotatable=0;labelPosition=right;points=[];portConstraint=eastwest;" parent="aAsVR65s4MKF9mWneRJd-93" vertex="1">
          <mxGeometry y="52" width="340" height="8" as="geometry" />
        </mxCell>
        <mxCell id="aAsVR65s4MKF9mWneRJd-146" style="edgeStyle=orthogonalEdgeStyle;rounded=0;orthogonalLoop=1;jettySize=auto;html=1;exitX=1;exitY=0.5;exitDx=0;exitDy=0;" parent="aAsVR65s4MKF9mWneRJd-93" source="aAsVR65s4MKF9mWneRJd-101" target="aAsVR65s4MKF9mWneRJd-101" edge="1">
          <mxGeometry relative="1" as="geometry" />
        </mxCell>
        <mxCell id="aAsVR65s4MKF9mWneRJd-165" value="+ getNextLocation(): Location &lt;&lt;throws&gt;&gt; TransitionException" style="text;align=left;verticalAlign=top;spacingLeft=4;spacingRight=4;overflow=hidden;rotatable=0;points=[[0,0.5],[1,0.5]];portConstraint=eastwest;rounded=0;shadow=0;html=0;" parent="aAsVR65s4MKF9mWneRJd-93" vertex="1">
          <mxGeometry y="60" width="340" height="26" as="geometry" />
        </mxCell>
        <mxCell id="aAsVR65s4MKF9mWneRJd-99" value="+ unlock()" style="text;strokeColor=none;fillColor=none;align=left;verticalAlign=top;spacingLeft=4;spacingRight=4;overflow=hidden;rotatable=0;points=[[0,0.5],[1,0.5]];portConstraint=eastwest;whiteSpace=wrap;html=1;" parent="aAsVR65s4MKF9mWneRJd-93" vertex="1">
          <mxGeometry y="86" width="340" height="26" as="geometry" />
        </mxCell>
        <mxCell id="aAsVR65s4MKF9mWneRJd-163" value="+ lock()" style="text;strokeColor=none;fillColor=none;align=left;verticalAlign=top;spacingLeft=4;spacingRight=4;overflow=hidden;rotatable=0;points=[[0,0.5],[1,0.5]];portConstraint=eastwest;whiteSpace=wrap;html=1;" parent="aAsVR65s4MKF9mWneRJd-93" vertex="1">
          <mxGeometry y="112" width="340" height="26" as="geometry" />
        </mxCell>
        <mxCell id="aAsVR65s4MKF9mWneRJd-106" value="Location" style="swimlane;fontStyle=0;align=center;verticalAlign=top;childLayout=stackLayout;horizontal=1;startSize=26;horizontalStack=0;resizeParent=1;resizeLast=0;collapsible=1;marginBottom=0;rounded=0;shadow=0;strokeWidth=1;" parent="WIyWlLk6GJQsqaUBKTNV-1" vertex="1">
          <mxGeometry x="860" y="-254" width="280" height="216" as="geometry">
            <mxRectangle x="130" y="380" width="160" height="26" as="alternateBounds" />
          </mxGeometry>
        </mxCell>
        <mxCell id="aAsVR65s4MKF9mWneRJd-107" value="# name: String" style="text;align=left;verticalAlign=top;spacingLeft=4;spacingRight=4;overflow=hidden;rotatable=0;points=[[0,0.5],[1,0.5]];portConstraint=eastwest;" parent="aAsVR65s4MKF9mWneRJd-106" vertex="1">
          <mxGeometry y="26" width="280" height="26" as="geometry" />
        </mxCell>
        <mxCell id="aAsVR65s4MKF9mWneRJd-109" value="- objects: ArrayList&lt;PhysycalObjects&gt;" style="text;align=left;verticalAlign=top;spacingLeft=4;spacingRight=4;overflow=hidden;rotatable=0;points=[[0,0.5],[1,0.5]];portConstraint=eastwest;rounded=0;shadow=0;html=0;" parent="aAsVR65s4MKF9mWneRJd-106" vertex="1">
          <mxGeometry y="52" width="280" height="26" as="geometry" />
        </mxCell>
        <mxCell id="aAsVR65s4MKF9mWneRJd-110" value="" style="line;html=1;strokeWidth=1;align=left;verticalAlign=middle;spacingTop=-1;spacingLeft=3;spacingRight=3;rotatable=0;labelPosition=right;points=[];portConstraint=eastwest;" parent="aAsVR65s4MKF9mWneRJd-106" vertex="1">
          <mxGeometry y="78" width="280" height="8" as="geometry" />
        </mxCell>
        <mxCell id="qYE4wkv7r3WHgoEgIhjc-175" value="+&amp;nbsp;Location(): Location" style="text;strokeColor=none;fillColor=none;align=left;verticalAlign=top;spacingLeft=4;spacingRight=4;overflow=hidden;rotatable=0;points=[[0,0.5],[1,0.5]];portConstraint=eastwest;whiteSpace=wrap;html=1;" parent="aAsVR65s4MKF9mWneRJd-106" vertex="1">
          <mxGeometry y="86" width="280" height="26" as="geometry" />
        </mxCell>
        <mxCell id="qYE4wkv7r3WHgoEgIhjc-174" value="+&amp;nbsp;Location(Collection&amp;lt;PhysycalObject&amp;gt;): Location" style="text;strokeColor=none;fillColor=none;align=left;verticalAlign=top;spacingLeft=4;spacingRight=4;overflow=hidden;rotatable=0;points=[[0,0.5],[1,0.5]];portConstraint=eastwest;whiteSpace=wrap;html=1;" parent="aAsVR65s4MKF9mWneRJd-106" vertex="1">
          <mxGeometry y="112" width="280" height="26" as="geometry" />
        </mxCell>
        <mxCell id="FOd2vaYkyNDT6LL8QNUN-12" value="+ setName(String name)" style="text;strokeColor=none;fillColor=none;align=left;verticalAlign=top;spacingLeft=4;spacingRight=4;overflow=hidden;rotatable=0;points=[[0,0.5],[1,0.5]];portConstraint=eastwest;whiteSpace=wrap;html=1;" vertex="1" parent="aAsVR65s4MKF9mWneRJd-106">
          <mxGeometry y="138" width="280" height="26" as="geometry" />
        </mxCell>
        <mxCell id="qYE4wkv7r3WHgoEgIhjc-155" value="+ toString(): String" style="text;strokeColor=none;fillColor=none;align=left;verticalAlign=top;spacingLeft=4;spacingRight=4;overflow=hidden;rotatable=0;points=[[0,0.5],[1,0.5]];portConstraint=eastwest;whiteSpace=wrap;html=1;" parent="aAsVR65s4MKF9mWneRJd-106" vertex="1">
          <mxGeometry y="164" width="280" height="26" as="geometry" />
        </mxCell>
        <mxCell id="aAsVR65s4MKF9mWneRJd-111" value="&lt;div&gt;+ getObjects(): ArrayList&amp;lt;PhysycalObjects&amp;gt;&lt;/div&gt;" style="text;strokeColor=none;fillColor=none;align=left;verticalAlign=top;spacingLeft=4;spacingRight=4;overflow=hidden;rotatable=0;points=[[0,0.5],[1,0.5]];portConstraint=eastwest;whiteSpace=wrap;html=1;" parent="aAsVR65s4MKF9mWneRJd-106" vertex="1">
          <mxGeometry y="190" width="280" height="26" as="geometry" />
        </mxCell>
        <mxCell id="aAsVR65s4MKF9mWneRJd-113" value="LocationTransition" style="swimlane;fontStyle=0;align=center;verticalAlign=top;childLayout=stackLayout;horizontal=1;startSize=26;horizontalStack=0;resizeParent=1;resizeLast=0;collapsible=1;marginBottom=0;rounded=0;shadow=0;strokeWidth=1;" parent="WIyWlLk6GJQsqaUBKTNV-1" vertex="1">
          <mxGeometry x="660" y="50" width="490" height="190" as="geometry">
            <mxRectangle x="130" y="380" width="160" height="26" as="alternateBounds" />
          </mxGeometry>
        </mxCell>
        <mxCell id="aAsVR65s4MKF9mWneRJd-117" value="# nextLocation: Location" style="text;align=left;verticalAlign=top;spacingLeft=4;spacingRight=4;overflow=hidden;rotatable=0;points=[[0,0.5],[1,0.5]];portConstraint=eastwest;rounded=0;shadow=0;html=0;" parent="aAsVR65s4MKF9mWneRJd-113" vertex="1">
          <mxGeometry y="26" width="490" height="26" as="geometry" />
        </mxCell>
        <mxCell id="aAsVR65s4MKF9mWneRJd-205" value="# nextLocationPos: Position" style="text;align=left;verticalAlign=top;spacingLeft=4;spacingRight=4;overflow=hidden;rotatable=0;points=[[0,0.5],[1,0.5]];portConstraint=eastwest;rounded=0;shadow=0;html=0;" parent="aAsVR65s4MKF9mWneRJd-113" vertex="1">
          <mxGeometry y="52" width="490" height="26" as="geometry" />
        </mxCell>
        <mxCell id="aAsVR65s4MKF9mWneRJd-119" value="" style="line;html=1;strokeWidth=1;align=left;verticalAlign=middle;spacingTop=-1;spacingLeft=3;spacingRight=3;rotatable=0;labelPosition=right;points=[];portConstraint=eastwest;" parent="aAsVR65s4MKF9mWneRJd-113" vertex="1">
          <mxGeometry y="78" width="490" height="8" as="geometry" />
        </mxCell>
        <mxCell id="qYE4wkv7r3WHgoEgIhjc-148" value="+ LocationTransition(Location nextLocation, Position nextLocationPos): LocationTransition" style="text;strokeColor=none;fillColor=none;align=left;verticalAlign=top;spacingLeft=4;spacingRight=4;overflow=hidden;rotatable=0;points=[[0,0.5],[1,0.5]];portConstraint=eastwest;whiteSpace=wrap;html=1;" parent="aAsVR65s4MKF9mWneRJd-113" vertex="1">
          <mxGeometry y="86" width="490" height="26" as="geometry" />
        </mxCell>
        <mxCell id="aAsVR65s4MKF9mWneRJd-206" value="+ getNextLocation(): Location &lt;&lt;throws&gt;&gt; TransitionException" style="text;align=left;verticalAlign=top;spacingLeft=4;spacingRight=4;overflow=hidden;rotatable=0;points=[[0,0.5],[1,0.5]];portConstraint=eastwest;rounded=0;shadow=0;html=0;" parent="aAsVR65s4MKF9mWneRJd-113" vertex="1">
          <mxGeometry y="112" width="490" height="26" as="geometry" />
        </mxCell>
        <mxCell id="qYE4wkv7r3WHgoEgIhjc-81" value="+ interact()" style="text;strokeColor=none;fillColor=none;align=left;verticalAlign=top;spacingLeft=4;spacingRight=4;overflow=hidden;rotatable=0;points=[[0,0.5],[1,0.5]];portConstraint=eastwest;whiteSpace=wrap;html=1;" parent="aAsVR65s4MKF9mWneRJd-113" vertex="1">
          <mxGeometry y="138" width="490" height="26" as="geometry" />
        </mxCell>
        <mxCell id="aAsVR65s4MKF9mWneRJd-145" value="+ getNextLocationPosition(): Position &lt;&lt;throws&gt;&gt; TransitionException" style="text;align=left;verticalAlign=top;spacingLeft=4;spacingRight=4;overflow=hidden;rotatable=0;points=[[0,0.5],[1,0.5]];portConstraint=eastwest;rounded=0;shadow=0;html=0;" parent="aAsVR65s4MKF9mWneRJd-113" vertex="1">
          <mxGeometry y="164" width="490" height="26" as="geometry" />
        </mxCell>
        <mxCell id="aAsVR65s4MKF9mWneRJd-147" value="" style="endArrow=block;endSize=16;endFill=0;html=1;rounded=0;exitX=0.486;exitY=0.001;exitDx=0;exitDy=0;entryX=0.731;entryY=1.036;entryDx=0;entryDy=0;entryPerimeter=0;exitPerimeter=0;" parent="WIyWlLk6GJQsqaUBKTNV-1" source="aAsVR65s4MKF9mWneRJd-93" target="aAsVR65s4MKF9mWneRJd-145" edge="1">
          <mxGeometry width="160" relative="1" as="geometry">
            <mxPoint x="1082.49" y="609" as="sourcePoint" />
            <mxPoint x="1082.75" y="529" as="targetPoint" />
          </mxGeometry>
        </mxCell>
        <mxCell id="aAsVR65s4MKF9mWneRJd-152" value="TransitionException" style="swimlane;fontStyle=0;align=center;verticalAlign=top;childLayout=stackLayout;horizontal=1;startSize=26;horizontalStack=0;resizeParent=1;resizeLast=0;collapsible=1;marginBottom=0;rounded=0;shadow=0;strokeWidth=1;" parent="WIyWlLk6GJQsqaUBKTNV-1" vertex="1">
          <mxGeometry x="685" y="320" width="145" height="60" as="geometry">
            <mxRectangle x="130" y="380" width="160" height="26" as="alternateBounds" />
          </mxGeometry>
        </mxCell>
        <mxCell id="aAsVR65s4MKF9mWneRJd-154" value="" style="line;html=1;strokeWidth=1;align=left;verticalAlign=middle;spacingTop=-1;spacingLeft=3;spacingRight=3;rotatable=0;labelPosition=right;points=[];portConstraint=eastwest;" parent="aAsVR65s4MKF9mWneRJd-152" vertex="1">
          <mxGeometry y="26" width="145" height="8" as="geometry" />
        </mxCell>
        <mxCell id="aAsVR65s4MKF9mWneRJd-155" value="+ getMessage(): String" style="text;align=left;verticalAlign=top;spacingLeft=4;spacingRight=4;overflow=hidden;rotatable=0;points=[[0,0.5],[1,0.5]];portConstraint=eastwest;rounded=0;shadow=0;html=0;" parent="aAsVR65s4MKF9mWneRJd-152" vertex="1">
          <mxGeometry y="34" width="145" height="26" as="geometry" />
        </mxCell>
        <mxCell id="aAsVR65s4MKF9mWneRJd-158" value="" style="endArrow=block;endSize=16;endFill=0;html=1;rounded=0;entryX=0.5;entryY=1;entryDx=0;entryDy=0;" parent="WIyWlLk6GJQsqaUBKTNV-1" target="aAsVR65s4MKF9mWneRJd-159" edge="1">
          <mxGeometry width="160" relative="1" as="geometry">
            <mxPoint x="785" y="320" as="sourcePoint" />
            <mxPoint x="785.2000000000003" y="303.28" as="targetPoint" />
          </mxGeometry>
        </mxCell>
        <mxCell id="aAsVR65s4MKF9mWneRJd-159" value="Exception" style="swimlane;fontStyle=0;align=center;verticalAlign=top;childLayout=stackLayout;horizontal=1;startSize=26;horizontalStack=0;resizeParent=1;resizeLast=0;collapsible=1;marginBottom=0;rounded=0;shadow=0;strokeWidth=1;" parent="WIyWlLk6GJQsqaUBKTNV-1" vertex="1">
          <mxGeometry x="740" y="260" width="90" height="34" as="geometry">
            <mxRectangle x="130" y="380" width="160" height="26" as="alternateBounds" />
          </mxGeometry>
        </mxCell>
        <mxCell id="aAsVR65s4MKF9mWneRJd-161" value="" style="line;html=1;strokeWidth=1;align=left;verticalAlign=middle;spacingTop=-1;spacingLeft=3;spacingRight=3;rotatable=0;labelPosition=right;points=[];portConstraint=eastwest;" parent="aAsVR65s4MKF9mWneRJd-159" vertex="1">
          <mxGeometry y="26" width="90" height="4" as="geometry" />
        </mxCell>
        <mxCell id="aAsVR65s4MKF9mWneRJd-166" value="DoorLockedException" style="swimlane;fontStyle=0;align=center;verticalAlign=top;childLayout=stackLayout;horizontal=1;startSize=26;horizontalStack=0;resizeParent=1;resizeLast=0;collapsible=1;marginBottom=0;rounded=0;shadow=0;strokeWidth=1;" parent="WIyWlLk6GJQsqaUBKTNV-1" vertex="1">
          <mxGeometry x="500" y="272" width="140" height="60" as="geometry">
            <mxRectangle x="130" y="380" width="160" height="26" as="alternateBounds" />
          </mxGeometry>
        </mxCell>
        <mxCell id="aAsVR65s4MKF9mWneRJd-167" value="" style="line;html=1;strokeWidth=1;align=left;verticalAlign=middle;spacingTop=-1;spacingLeft=3;spacingRight=3;rotatable=0;labelPosition=right;points=[];portConstraint=eastwest;" parent="aAsVR65s4MKF9mWneRJd-166" vertex="1">
          <mxGeometry y="26" width="140" height="8" as="geometry" />
        </mxCell>
        <mxCell id="aAsVR65s4MKF9mWneRJd-168" value="+ getMessage(): String" style="text;align=left;verticalAlign=top;spacingLeft=4;spacingRight=4;overflow=hidden;rotatable=0;points=[[0,0.5],[1,0.5]];portConstraint=eastwest;rounded=0;shadow=0;html=0;" parent="aAsVR65s4MKF9mWneRJd-166" vertex="1">
          <mxGeometry y="34" width="140" height="26" as="geometry" />
        </mxCell>
        <mxCell id="qYE4wkv7r3WHgoEgIhjc-14" value="&amp;lt;&amp;lt;enumeration&amp;gt;&amp;gt;&lt;div&gt;PedestrianState&lt;/div&gt;" style="swimlane;fontStyle=1;align=center;verticalAlign=top;childLayout=stackLayout;horizontal=1;startSize=40;horizontalStack=0;resizeParent=1;resizeParentMax=0;resizeLast=0;collapsible=1;marginBottom=0;whiteSpace=wrap;html=1;" parent="WIyWlLk6GJQsqaUBKTNV-1" vertex="1">
          <mxGeometry x="105" y="8" width="200" height="152" as="geometry" />
        </mxCell>
        <mxCell id="qYE4wkv7r3WHgoEgIhjc-15" value="SIT_ON_BENCH" style="text;strokeColor=none;fillColor=none;align=left;verticalAlign=top;spacingLeft=4;spacingRight=4;overflow=hidden;rotatable=0;points=[[0,0.5],[1,0.5]];portConstraint=eastwest;whiteSpace=wrap;html=1;" parent="qYE4wkv7r3WHgoEgIhjc-14" vertex="1">
          <mxGeometry y="40" width="200" height="26" as="geometry" />
        </mxCell>
        <mxCell id="qYE4wkv7r3WHgoEgIhjc-118" value="STOP_ON_SIDEWALK" style="text;strokeColor=none;fillColor=none;align=left;verticalAlign=top;spacingLeft=4;spacingRight=4;overflow=hidden;rotatable=0;points=[[0,0.5],[1,0.5]];portConstraint=eastwest;whiteSpace=wrap;html=1;" parent="qYE4wkv7r3WHgoEgIhjc-14" vertex="1">
          <mxGeometry y="66" width="200" height="26" as="geometry" />
        </mxCell>
        <mxCell id="qYE4wkv7r3WHgoEgIhjc-16" value="READ_ON_WALK" style="text;strokeColor=none;fillColor=none;align=left;verticalAlign=top;spacingLeft=4;spacingRight=4;overflow=hidden;rotatable=0;points=[[0,0.5],[1,0.5]];portConstraint=eastwest;whiteSpace=wrap;html=1;" parent="qYE4wkv7r3WHgoEgIhjc-14" vertex="1">
          <mxGeometry y="92" width="200" height="26" as="geometry" />
        </mxCell>
        <mxCell id="qYE4wkv7r3WHgoEgIhjc-119" value="GO_TO_KIOSK" style="text;strokeColor=none;fillColor=none;align=left;verticalAlign=top;spacingLeft=4;spacingRight=4;overflow=hidden;rotatable=0;points=[[0,0.5],[1,0.5]];portConstraint=eastwest;whiteSpace=wrap;html=1;" parent="qYE4wkv7r3WHgoEgIhjc-14" vertex="1">
          <mxGeometry y="118" width="200" height="26" as="geometry" />
        </mxCell>
        <mxCell id="qYE4wkv7r3WHgoEgIhjc-17" value="" style="line;strokeWidth=1;fillColor=none;align=left;verticalAlign=middle;spacingTop=-1;spacingLeft=3;spacingRight=3;rotatable=0;labelPosition=right;points=[];portConstraint=eastwest;strokeColor=inherit;" parent="qYE4wkv7r3WHgoEgIhjc-14" vertex="1">
          <mxGeometry y="144" width="200" height="8" as="geometry" />
        </mxCell>
        <mxCell id="qYE4wkv7r3WHgoEgIhjc-19" value="NoLocationException" style="swimlane;fontStyle=0;align=center;verticalAlign=top;childLayout=stackLayout;horizontal=1;startSize=26;horizontalStack=0;resizeParent=1;resizeLast=0;collapsible=1;marginBottom=0;rounded=0;shadow=0;strokeWidth=1;" parent="WIyWlLk6GJQsqaUBKTNV-1" vertex="1">
          <mxGeometry x="500" y="340" width="140" height="60" as="geometry">
            <mxRectangle x="130" y="380" width="160" height="26" as="alternateBounds" />
          </mxGeometry>
        </mxCell>
        <mxCell id="qYE4wkv7r3WHgoEgIhjc-20" value="" style="line;html=1;strokeWidth=1;align=left;verticalAlign=middle;spacingTop=-1;spacingLeft=3;spacingRight=3;rotatable=0;labelPosition=right;points=[];portConstraint=eastwest;" parent="qYE4wkv7r3WHgoEgIhjc-19" vertex="1">
          <mxGeometry y="26" width="140" height="8" as="geometry" />
        </mxCell>
        <mxCell id="qYE4wkv7r3WHgoEgIhjc-21" value="+ getMessage(): String" style="text;align=left;verticalAlign=top;spacingLeft=4;spacingRight=4;overflow=hidden;rotatable=0;points=[[0,0.5],[1,0.5]];portConstraint=eastwest;rounded=0;shadow=0;html=0;" parent="qYE4wkv7r3WHgoEgIhjc-19" vertex="1">
          <mxGeometry y="34" width="140" height="26" as="geometry" />
        </mxCell>
        <mxCell id="qYE4wkv7r3WHgoEgIhjc-32" value="" style="endArrow=diamondThin;endFill=0;endSize=24;html=1;rounded=0;entryX=0.049;entryY=1.026;entryDx=0;entryDy=0;entryPerimeter=0;" parent="WIyWlLk6GJQsqaUBKTNV-1" edge="1">
          <mxGeometry width="160" relative="1" as="geometry">
            <mxPoint x="712.75" y="320" as="sourcePoint" />
            <mxPoint x="712.75" y="239.99600000000015" as="targetPoint" />
            <Array as="points">
              <mxPoint x="712.75" y="264" />
            </Array>
          </mxGeometry>
        </mxCell>
        <mxCell id="qYE4wkv7r3WHgoEgIhjc-41" value="&lt;&lt;abstract&gt;&gt;&#xa;PhysicalObject" style="swimlane;fontStyle=0;align=center;verticalAlign=top;childLayout=stackLayout;horizontal=1;startSize=40;horizontalStack=0;resizeParent=1;resizeLast=0;collapsible=1;marginBottom=0;rounded=0;shadow=0;strokeWidth=1;" parent="WIyWlLk6GJQsqaUBKTNV-1" vertex="1">
          <mxGeometry x="490" y="-300" width="330" height="308" as="geometry">
            <mxRectangle x="130" y="380" width="160" height="26" as="alternateBounds" />
          </mxGeometry>
        </mxCell>
        <mxCell id="qYE4wkv7r3WHgoEgIhjc-42" value="# form: Polygon" style="text;align=left;verticalAlign=top;spacingLeft=4;spacingRight=4;overflow=hidden;rotatable=0;points=[[0,0.5],[1,0.5]];portConstraint=eastwest;rounded=0;shadow=0;html=0;" parent="qYE4wkv7r3WHgoEgIhjc-41" vertex="1">
          <mxGeometry y="40" width="330" height="26" as="geometry" />
        </mxCell>
        <mxCell id="qYE4wkv7r3WHgoEgIhjc-57" value="# name: String" style="text;align=left;verticalAlign=top;spacingLeft=4;spacingRight=4;overflow=hidden;rotatable=0;points=[[0,0.5],[1,0.5]];portConstraint=eastwest;rounded=0;shadow=0;html=0;" parent="qYE4wkv7r3WHgoEgIhjc-41" vertex="1">
          <mxGeometry y="66" width="330" height="26" as="geometry" />
        </mxCell>
        <mxCell id="qYE4wkv7r3WHgoEgIhjc-43" value="# position: Position" style="text;align=left;verticalAlign=top;spacingLeft=4;spacingRight=4;overflow=hidden;rotatable=0;points=[[0,0.5],[1,0.5]];portConstraint=eastwest;rounded=0;shadow=0;html=0;" parent="qYE4wkv7r3WHgoEgIhjc-41" vertex="1">
          <mxGeometry y="92" width="330" height="26" as="geometry" />
        </mxCell>
        <mxCell id="qYE4wkv7r3WHgoEgIhjc-44" value="" style="line;html=1;strokeWidth=1;align=left;verticalAlign=middle;spacingTop=-1;spacingLeft=3;spacingRight=3;rotatable=0;labelPosition=right;points=[];portConstraint=eastwest;" parent="qYE4wkv7r3WHgoEgIhjc-41" vertex="1">
          <mxGeometry y="118" width="330" height="8" as="geometry" />
        </mxCell>
        <mxCell id="FOd2vaYkyNDT6LL8QNUN-17" value="PhysicalObject(Polygon form, Position pos): PhysicalObject" style="text;strokeColor=none;fillColor=none;align=left;verticalAlign=top;spacingLeft=4;spacingRight=4;overflow=hidden;rotatable=0;points=[[0,0.5],[1,0.5]];portConstraint=eastwest;whiteSpace=wrap;html=1;" vertex="1" parent="qYE4wkv7r3WHgoEgIhjc-41">
          <mxGeometry y="126" width="330" height="26" as="geometry" />
        </mxCell>
        <mxCell id="FOd2vaYkyNDT6LL8QNUN-16" value="PhysicalObject(): PhysicalObject" style="text;strokeColor=none;fillColor=none;align=left;verticalAlign=top;spacingLeft=4;spacingRight=4;overflow=hidden;rotatable=0;points=[[0,0.5],[1,0.5]];portConstraint=eastwest;whiteSpace=wrap;html=1;" vertex="1" parent="qYE4wkv7r3WHgoEgIhjc-41">
          <mxGeometry y="152" width="330" height="26" as="geometry" />
        </mxCell>
        <mxCell id="qYE4wkv7r3WHgoEgIhjc-46" value="+ interact() &amp;lt;&amp;lt;abstract&amp;gt;&amp;gt;" style="text;strokeColor=none;fillColor=none;align=left;verticalAlign=top;spacingLeft=4;spacingRight=4;overflow=hidden;rotatable=0;points=[[0,0.5],[1,0.5]];portConstraint=eastwest;whiteSpace=wrap;html=1;" parent="qYE4wkv7r3WHgoEgIhjc-41" vertex="1">
          <mxGeometry y="178" width="330" height="26" as="geometry" />
        </mxCell>
        <mxCell id="FOd2vaYkyNDT6LL8QNUN-11" value="+ getForm(): Polygon" style="text;strokeColor=none;fillColor=none;align=left;verticalAlign=top;spacingLeft=4;spacingRight=4;overflow=hidden;rotatable=0;points=[[0,0.5],[1,0.5]];portConstraint=eastwest;whiteSpace=wrap;html=1;" vertex="1" parent="qYE4wkv7r3WHgoEgIhjc-41">
          <mxGeometry y="204" width="330" height="26" as="geometry" />
        </mxCell>
        <mxCell id="qYE4wkv7r3WHgoEgIhjc-47" value="+ getPostion(): Position" style="text;strokeColor=none;fillColor=none;align=left;verticalAlign=top;spacingLeft=4;spacingRight=4;overflow=hidden;rotatable=0;points=[[0,0.5],[1,0.5]];portConstraint=eastwest;whiteSpace=wrap;html=1;" parent="qYE4wkv7r3WHgoEgIhjc-41" vertex="1">
          <mxGeometry y="230" width="330" height="26" as="geometry" />
        </mxCell>
        <mxCell id="qYE4wkv7r3WHgoEgIhjc-141" value="+ move(Position)" style="text;strokeColor=none;fillColor=none;align=left;verticalAlign=top;spacingLeft=4;spacingRight=4;overflow=hidden;rotatable=0;points=[[0,0.5],[1,0.5]];portConstraint=eastwest;whiteSpace=wrap;html=1;" parent="qYE4wkv7r3WHgoEgIhjc-41" vertex="1">
          <mxGeometry y="256" width="330" height="26" as="geometry" />
        </mxCell>
        <mxCell id="qYE4wkv7r3WHgoEgIhjc-146" value="+ toString(): String" style="text;strokeColor=none;fillColor=none;align=left;verticalAlign=top;spacingLeft=4;spacingRight=4;overflow=hidden;rotatable=0;points=[[0,0.5],[1,0.5]];portConstraint=eastwest;whiteSpace=wrap;html=1;" parent="qYE4wkv7r3WHgoEgIhjc-41" vertex="1">
          <mxGeometry y="282" width="330" height="26" as="geometry" />
        </mxCell>
        <mxCell id="qYE4wkv7r3WHgoEgIhjc-74" value="" style="endArrow=block;dashed=1;endFill=0;endSize=12;html=1;rounded=0;entryX=1.007;entryY=0.242;entryDx=0;entryDy=0;entryPerimeter=0;exitX=0.003;exitY=0.71;exitDx=0;exitDy=0;exitPerimeter=0;" parent="WIyWlLk6GJQsqaUBKTNV-1" source="qYE4wkv7r3WHgoEgIhjc-152" target="aAsVR65s4MKF9mWneRJd-3" edge="1">
          <mxGeometry width="160" relative="1" as="geometry">
            <mxPoint x="260" y="-85" as="sourcePoint" />
            <mxPoint x="260.03999999999996" y="-114.99599999999995" as="targetPoint" />
          </mxGeometry>
        </mxCell>
        <mxCell id="qYE4wkv7r3WHgoEgIhjc-84" value="" style="endArrow=block;endSize=16;endFill=0;html=1;rounded=0;exitX=0.256;exitY=0.999;exitDx=0;exitDy=0;exitPerimeter=0;entryX=0.293;entryY=-0.001;entryDx=0;entryDy=0;entryPerimeter=0;" parent="WIyWlLk6GJQsqaUBKTNV-1" source="qYE4wkv7r3WHgoEgIhjc-140" target="aAsVR65s4MKF9mWneRJd-106" edge="1">
          <mxGeometry width="160" relative="1" as="geometry">
            <mxPoint x="900" y="-272" as="sourcePoint" />
            <mxPoint x="940" y="-270" as="targetPoint" />
          </mxGeometry>
        </mxCell>
        <mxCell id="qYE4wkv7r3WHgoEgIhjc-86" value="&lt;div&gt;Pedestrian&lt;/div&gt;" style="swimlane;fontStyle=1;align=center;verticalAlign=top;childLayout=stackLayout;horizontal=1;startSize=30;horizontalStack=0;resizeParent=1;resizeParentMax=0;resizeLast=0;collapsible=1;marginBottom=0;whiteSpace=wrap;html=1;" parent="WIyWlLk6GJQsqaUBKTNV-1" vertex="1">
          <mxGeometry x="350" y="50" width="274" height="194" as="geometry" />
        </mxCell>
        <mxCell id="qYE4wkv7r3WHgoEgIhjc-107" value="- newspaper: Optional&amp;lt;Newspaper&amp;gt;" style="text;strokeColor=none;fillColor=none;align=left;verticalAlign=top;spacingLeft=4;spacingRight=4;overflow=hidden;rotatable=0;points=[[0,0.5],[1,0.5]];portConstraint=eastwest;whiteSpace=wrap;html=1;" parent="qYE4wkv7r3WHgoEgIhjc-86" vertex="1">
          <mxGeometry y="30" width="274" height="26" as="geometry" />
        </mxCell>
        <mxCell id="qYE4wkv7r3WHgoEgIhjc-108" value="- state: PedestrianState" style="text;strokeColor=none;fillColor=none;align=left;verticalAlign=top;spacingLeft=4;spacingRight=4;overflow=hidden;rotatable=0;points=[[0,0.5],[1,0.5]];portConstraint=eastwest;whiteSpace=wrap;html=1;" parent="qYE4wkv7r3WHgoEgIhjc-86" vertex="1">
          <mxGeometry y="56" width="274" height="26" as="geometry" />
        </mxCell>
        <mxCell id="qYE4wkv7r3WHgoEgIhjc-89" value="" style="line;strokeWidth=1;fillColor=none;align=left;verticalAlign=middle;spacingTop=-1;spacingLeft=3;spacingRight=3;rotatable=0;labelPosition=right;points=[];portConstraint=eastwest;strokeColor=inherit;" parent="qYE4wkv7r3WHgoEgIhjc-86" vertex="1">
          <mxGeometry y="82" width="274" height="8" as="geometry" />
        </mxCell>
        <mxCell id="qYE4wkv7r3WHgoEgIhjc-111" value="+ Pedestrian(): Pedestrian" style="text;strokeColor=none;fillColor=none;align=left;verticalAlign=top;spacingLeft=4;spacingRight=4;overflow=hidden;rotatable=0;points=[[0,0.5],[1,0.5]];portConstraint=eastwest;whiteSpace=wrap;html=1;" parent="qYE4wkv7r3WHgoEgIhjc-86" vertex="1">
          <mxGeometry y="90" width="274" height="26" as="geometry" />
        </mxCell>
        <mxCell id="qYE4wkv7r3WHgoEgIhjc-110" value="+ Pedestrian(Newspaper newspaper): Pedestrian" style="text;strokeColor=none;fillColor=none;align=left;verticalAlign=top;spacingLeft=4;spacingRight=4;overflow=hidden;rotatable=0;points=[[0,0.5],[1,0.5]];portConstraint=eastwest;whiteSpace=wrap;html=1;" parent="qYE4wkv7r3WHgoEgIhjc-86" vertex="1">
          <mxGeometry y="116" width="274" height="26" as="geometry" />
        </mxCell>
        <mxCell id="qYE4wkv7r3WHgoEgIhjc-97" value="+ interact()" style="text;strokeColor=none;fillColor=none;align=left;verticalAlign=top;spacingLeft=4;spacingRight=4;overflow=hidden;rotatable=0;points=[[0,0.5],[1,0.5]];portConstraint=eastwest;whiteSpace=wrap;html=1;" parent="qYE4wkv7r3WHgoEgIhjc-86" vertex="1">
          <mxGeometry y="142" width="274" height="26" as="geometry" />
        </mxCell>
        <mxCell id="qYE4wkv7r3WHgoEgIhjc-109" value="+ getState(): PedestrianState" style="text;strokeColor=none;fillColor=none;align=left;verticalAlign=top;spacingLeft=4;spacingRight=4;overflow=hidden;rotatable=0;points=[[0,0.5],[1,0.5]];portConstraint=eastwest;whiteSpace=wrap;html=1;" parent="qYE4wkv7r3WHgoEgIhjc-86" vertex="1">
          <mxGeometry y="168" width="274" height="26" as="geometry" />
        </mxCell>
        <mxCell id="qYE4wkv7r3WHgoEgIhjc-90" value="" style="endArrow=diamondThin;endFill=0;endSize=24;html=1;rounded=0;exitX=0.993;exitY=0.281;exitDx=0;exitDy=0;entryX=0;entryY=0.055;entryDx=0;entryDy=0;exitPerimeter=0;entryPerimeter=0;" parent="WIyWlLk6GJQsqaUBKTNV-1" source="qYE4wkv7r3WHgoEgIhjc-16" target="qYE4wkv7r3WHgoEgIhjc-108" edge="1">
          <mxGeometry width="160" relative="1" as="geometry">
            <mxPoint x="-610" y="229" as="sourcePoint" />
            <mxPoint x="-514" y="232" as="targetPoint" />
          </mxGeometry>
        </mxCell>
        <mxCell id="qYE4wkv7r3WHgoEgIhjc-99" value="Newspaper" style="swimlane;fontStyle=1;align=center;verticalAlign=top;childLayout=stackLayout;horizontal=1;startSize=30;horizontalStack=0;resizeParent=1;resizeParentMax=0;resizeLast=0;collapsible=1;marginBottom=0;whiteSpace=wrap;html=1;" parent="WIyWlLk6GJQsqaUBKTNV-1" vertex="1">
          <mxGeometry x="105" y="186" width="200" height="142" as="geometry" />
        </mxCell>
        <mxCell id="qYE4wkv7r3WHgoEgIhjc-132" value="# name: String" style="text;align=left;verticalAlign=top;spacingLeft=4;spacingRight=4;overflow=hidden;rotatable=0;points=[[0,0.5],[1,0.5]];portConstraint=eastwest;" parent="qYE4wkv7r3WHgoEgIhjc-99" vertex="1">
          <mxGeometry y="30" width="200" height="26" as="geometry" />
        </mxCell>
        <mxCell id="qYE4wkv7r3WHgoEgIhjc-143" value="+ toString(): String" style="text;strokeColor=none;fillColor=none;align=left;verticalAlign=top;spacingLeft=4;spacingRight=4;overflow=hidden;rotatable=0;points=[[0,0.5],[1,0.5]];portConstraint=eastwest;whiteSpace=wrap;html=1;" parent="qYE4wkv7r3WHgoEgIhjc-99" vertex="1">
          <mxGeometry y="56" width="200" height="26" as="geometry" />
        </mxCell>
        <mxCell id="qYE4wkv7r3WHgoEgIhjc-101" value="- " style="text;strokeColor=none;fillColor=none;align=left;verticalAlign=top;spacingLeft=4;spacingRight=4;overflow=hidden;rotatable=0;points=[[0,0.5],[1,0.5]];portConstraint=eastwest;whiteSpace=wrap;html=1;" parent="qYE4wkv7r3WHgoEgIhjc-99" vertex="1">
          <mxGeometry y="82" width="200" as="geometry" />
        </mxCell>
        <mxCell id="qYE4wkv7r3WHgoEgIhjc-102" value="" style="line;strokeWidth=1;fillColor=none;align=left;verticalAlign=middle;spacingTop=-1;spacingLeft=3;spacingRight=3;rotatable=0;labelPosition=right;points=[];portConstraint=eastwest;strokeColor=inherit;" parent="qYE4wkv7r3WHgoEgIhjc-99" vertex="1">
          <mxGeometry y="82" width="200" height="8" as="geometry" />
        </mxCell>
        <mxCell id="qYE4wkv7r3WHgoEgIhjc-133" value="+ Newspaper(): Newspaper" style="text;align=left;verticalAlign=top;spacingLeft=4;spacingRight=4;overflow=hidden;rotatable=0;points=[[0,0.5],[1,0.5]];portConstraint=eastwest;" parent="qYE4wkv7r3WHgoEgIhjc-99" vertex="1">
          <mxGeometry y="90" width="200" height="26" as="geometry" />
        </mxCell>
        <mxCell id="qYE4wkv7r3WHgoEgIhjc-105" value="+ read(): String" style="text;strokeColor=none;fillColor=none;align=left;verticalAlign=top;spacingLeft=4;spacingRight=4;overflow=hidden;rotatable=0;points=[[0,0.5],[1,0.5]];portConstraint=eastwest;whiteSpace=wrap;html=1;" parent="qYE4wkv7r3WHgoEgIhjc-99" vertex="1">
          <mxGeometry y="116" width="200" height="26" as="geometry" />
        </mxCell>
        <mxCell id="qYE4wkv7r3WHgoEgIhjc-113" value="" style="endArrow=block;endSize=16;endFill=0;html=1;rounded=0;entryX=0;entryY=0.5;entryDx=0;entryDy=0;" parent="WIyWlLk6GJQsqaUBKTNV-1" edge="1">
          <mxGeometry width="160" relative="1" as="geometry">
            <mxPoint x="560" y="-413" as="sourcePoint" />
            <mxPoint x="597.2500000000001" y="-413.10000000000014" as="targetPoint" />
          </mxGeometry>
        </mxCell>
        <mxCell id="qYE4wkv7r3WHgoEgIhjc-115" value="" style="endArrow=block;endSize=16;endFill=0;html=1;rounded=0;exitX=0.999;exitY=0.069;exitDx=0;exitDy=0;entryX=-0.002;entryY=0.028;entryDx=0;entryDy=0;entryPerimeter=0;exitPerimeter=0;" parent="WIyWlLk6GJQsqaUBKTNV-1" source="aAsVR65s4MKF9mWneRJd-179" target="aAsVR65s4MKF9mWneRJd-57" edge="1">
          <mxGeometry width="160" relative="1" as="geometry">
            <mxPoint x="740" y="-783" as="sourcePoint" />
            <mxPoint x="900" y="-783" as="targetPoint" />
          </mxGeometry>
        </mxCell>
        <mxCell id="qYE4wkv7r3WHgoEgIhjc-123" value="Travelers" style="swimlane;fontStyle=1;align=center;verticalAlign=top;childLayout=stackLayout;horizontal=1;startSize=30;horizontalStack=0;resizeParent=1;resizeParentMax=0;resizeLast=0;collapsible=1;marginBottom=0;whiteSpace=wrap;html=1;" parent="WIyWlLk6GJQsqaUBKTNV-1" vertex="1">
          <mxGeometry x="305" y="-330" width="150" height="116" as="geometry" />
        </mxCell>
        <mxCell id="qYE4wkv7r3WHgoEgIhjc-126" value="" style="line;strokeWidth=1;fillColor=none;align=left;verticalAlign=middle;spacingTop=-1;spacingLeft=3;spacingRight=3;rotatable=0;labelPosition=right;points=[];portConstraint=eastwest;strokeColor=inherit;" parent="qYE4wkv7r3WHgoEgIhjc-123" vertex="1">
          <mxGeometry y="30" width="150" height="8" as="geometry" />
        </mxCell>
        <mxCell id="qYE4wkv7r3WHgoEgIhjc-127" value="+&amp;nbsp;Travelers(): Travelers" style="text;strokeColor=none;fillColor=none;align=left;verticalAlign=top;spacingLeft=4;spacingRight=4;overflow=hidden;rotatable=0;points=[[0,0.5],[1,0.5]];portConstraint=eastwest;whiteSpace=wrap;html=1;" parent="qYE4wkv7r3WHgoEgIhjc-123" vertex="1">
          <mxGeometry y="38" width="150" height="26" as="geometry" />
        </mxCell>
        <mxCell id="qYE4wkv7r3WHgoEgIhjc-129" value="+ interact()" style="text;strokeColor=none;fillColor=none;align=left;verticalAlign=top;spacingLeft=4;spacingRight=4;overflow=hidden;rotatable=0;points=[[0,0.5],[1,0.5]];portConstraint=eastwest;whiteSpace=wrap;html=1;" parent="qYE4wkv7r3WHgoEgIhjc-123" vertex="1">
          <mxGeometry y="64" width="150" height="26" as="geometry" />
        </mxCell>
        <mxCell id="qYE4wkv7r3WHgoEgIhjc-130" value="+ lookAround()" style="text;strokeColor=none;fillColor=none;align=left;verticalAlign=top;spacingLeft=4;spacingRight=4;overflow=hidden;rotatable=0;points=[[0,0.5],[1,0.5]];portConstraint=eastwest;whiteSpace=wrap;html=1;" parent="qYE4wkv7r3WHgoEgIhjc-123" vertex="1">
          <mxGeometry y="90" width="150" height="26" as="geometry" />
        </mxCell>
        <mxCell id="qYE4wkv7r3WHgoEgIhjc-150" value="" style="endArrow=diamondThin;endFill=1;endSize=24;html=1;rounded=0;entryX=0.428;entryY=1.065;entryDx=0;entryDy=0;entryPerimeter=0;exitX=0.582;exitY=0.002;exitDx=0;exitDy=0;exitPerimeter=0;" parent="WIyWlLk6GJQsqaUBKTNV-1" source="qYE4wkv7r3WHgoEgIhjc-41" edge="1">
          <mxGeometry width="160" relative="1" as="geometry">
            <mxPoint x="680" y="-302.45000000000005" as="sourcePoint" />
            <mxPoint x="681.7600000000002" y="-350.0049999999999" as="targetPoint" />
          </mxGeometry>
        </mxCell>
        <mxCell id="qYE4wkv7r3WHgoEgIhjc-154" value="" style="endArrow=block;endSize=16;endFill=0;html=1;rounded=0;entryX=-0.002;entryY=0.194;entryDx=0;entryDy=0;entryPerimeter=0;exitX=1;exitY=0.5;exitDx=0;exitDy=0;" parent="WIyWlLk6GJQsqaUBKTNV-1" edge="1">
          <mxGeometry width="160" relative="1" as="geometry">
            <mxPoint x="455" y="-108.09" as="sourcePoint" />
            <mxPoint x="489.5" y="-108.0459999999999" as="targetPoint" />
          </mxGeometry>
        </mxCell>
        <mxCell id="qYE4wkv7r3WHgoEgIhjc-159" value="" style="endArrow=block;endSize=16;endFill=0;html=1;rounded=0;entryX=0.197;entryY=1.021;entryDx=0;entryDy=0;entryPerimeter=0;exitX=0.75;exitY=0;exitDx=0;exitDy=0;" parent="WIyWlLk6GJQsqaUBKTNV-1" target="qYE4wkv7r3WHgoEgIhjc-146" edge="1" source="qYE4wkv7r3WHgoEgIhjc-86">
          <mxGeometry width="160" relative="1" as="geometry">
            <mxPoint x="407" y="-10" as="sourcePoint" />
            <mxPoint x="570" y="-30" as="targetPoint" />
          </mxGeometry>
        </mxCell>
        <mxCell id="qYE4wkv7r3WHgoEgIhjc-162" value="" style="endArrow=block;endSize=16;endFill=0;html=1;rounded=0;entryX=0.711;entryY=1.024;entryDx=0;entryDy=0;exitX=0.131;exitY=0.014;exitDx=0;exitDy=0;entryPerimeter=0;exitPerimeter=0;" parent="WIyWlLk6GJQsqaUBKTNV-1" source="aAsVR65s4MKF9mWneRJd-113" target="qYE4wkv7r3WHgoEgIhjc-146" edge="1">
          <mxGeometry width="160" relative="1" as="geometry">
            <mxPoint x="800" y="-112.2" as="sourcePoint" />
            <mxPoint x="960" y="-112.2" as="targetPoint" />
          </mxGeometry>
        </mxCell>
        <mxCell id="qYE4wkv7r3WHgoEgIhjc-163" value="" style="endArrow=block;endSize=16;endFill=0;html=1;rounded=0;exitX=0.996;exitY=0.373;exitDx=0;exitDy=0;entryX=-0.005;entryY=0.325;entryDx=0;entryDy=0;entryPerimeter=0;exitPerimeter=0;" parent="WIyWlLk6GJQsqaUBKTNV-1" source="qYE4wkv7r3WHgoEgIhjc-19" target="aAsVR65s4MKF9mWneRJd-155" edge="1">
          <mxGeometry width="160" relative="1" as="geometry">
            <mxPoint x="517.25" y="300" as="sourcePoint" />
            <mxPoint x="677.25" y="300" as="targetPoint" />
          </mxGeometry>
        </mxCell>
        <mxCell id="qYE4wkv7r3WHgoEgIhjc-164" value="" style="endArrow=block;endSize=16;endFill=0;html=1;rounded=0;exitX=1.004;exitY=0.799;exitDx=0;exitDy=0;exitPerimeter=0;entryX=-0.005;entryY=0.114;entryDx=0;entryDy=0;entryPerimeter=0;" parent="WIyWlLk6GJQsqaUBKTNV-1" source="aAsVR65s4MKF9mWneRJd-168" target="aAsVR65s4MKF9mWneRJd-152" edge="1">
          <mxGeometry width="160" relative="1" as="geometry">
            <mxPoint x="584.0699999999999" y="291.44599999999997" as="sourcePoint" />
            <mxPoint x="622.25" y="294.56" as="targetPoint" />
          </mxGeometry>
        </mxCell>
        <mxCell id="qYE4wkv7r3WHgoEgIhjc-165" value="" style="endArrow=diamondThin;endFill=1;endSize=24;html=1;rounded=0;exitX=1.002;exitY=0.177;exitDx=0;exitDy=0;exitPerimeter=0;entryX=0;entryY=0.883;entryDx=0;entryDy=0;entryPerimeter=0;" parent="WIyWlLk6GJQsqaUBKTNV-1" target="qYE4wkv7r3WHgoEgIhjc-175" edge="1" source="FOd2vaYkyNDT6LL8QNUN-16">
          <mxGeometry width="160" relative="1" as="geometry">
            <mxPoint x="810" y="-146.96" as="sourcePoint" />
            <mxPoint x="850" y="-145.03999999999994" as="targetPoint" />
          </mxGeometry>
        </mxCell>
        <mxCell id="qYE4wkv7r3WHgoEgIhjc-167" value="" style="endArrow=block;endSize=16;endFill=0;html=1;rounded=0;entryX=-0.004;entryY=0.098;entryDx=0;entryDy=0;entryPerimeter=0;exitX=0.998;exitY=0.884;exitDx=0;exitDy=0;exitPerimeter=0;" parent="WIyWlLk6GJQsqaUBKTNV-1" source="qYE4wkv7r3WHgoEgIhjc-127" target="qYE4wkv7r3WHgoEgIhjc-41" edge="1">
          <mxGeometry width="160" relative="1" as="geometry">
            <mxPoint x="660" y="-20" as="sourcePoint" />
            <mxPoint x="746" y="47.709999999999994" as="targetPoint" />
          </mxGeometry>
        </mxCell>
        <mxCell id="qYE4wkv7r3WHgoEgIhjc-169" value="" style="endArrow=diamondThin;endFill=1;endSize=24;html=1;rounded=0;exitX=1.004;exitY=0.098;exitDx=0;exitDy=0;exitPerimeter=0;entryX=-0.001;entryY=0.317;entryDx=0;entryDy=0;entryPerimeter=0;" parent="WIyWlLk6GJQsqaUBKTNV-1" edge="1" target="qYE4wkv7r3WHgoEgIhjc-97" source="qYE4wkv7r3WHgoEgIhjc-99">
          <mxGeometry width="160" relative="1" as="geometry">
            <mxPoint x="261.1499999999999" y="160.00000000000006" as="sourcePoint" />
            <mxPoint x="296.002" y="161.1580000000002" as="targetPoint" />
          </mxGeometry>
        </mxCell>
        <mxCell id="qYE4wkv7r3WHgoEgIhjc-170" value="" style="endArrow=diamondThin;endFill=1;endSize=24;html=1;rounded=0;entryX=0.999;entryY=0.694;entryDx=0;entryDy=0;entryPerimeter=0;exitX=0;exitY=0.712;exitDx=0;exitDy=0;exitPerimeter=0;" parent="WIyWlLk6GJQsqaUBKTNV-1" source="qYE4wkv7r3WHgoEgIhjc-139" target="aAsVR65s4MKF9mWneRJd-61" edge="1">
          <mxGeometry width="160" relative="1" as="geometry">
            <mxPoint x="789.75" y="-389" as="sourcePoint" />
            <mxPoint x="789.75" y="-437" as="targetPoint" />
          </mxGeometry>
        </mxCell>
        <mxCell id="qYE4wkv7r3WHgoEgIhjc-171" value="" style="endArrow=diamondThin;endFill=1;endSize=24;html=1;rounded=0;entryX=0.004;entryY=0.514;entryDx=0;entryDy=0;entryPerimeter=0;exitX=1.001;exitY=0.054;exitDx=0;exitDy=0;exitPerimeter=0;" parent="WIyWlLk6GJQsqaUBKTNV-1" source="qYE4wkv7r3WHgoEgIhjc-41" target="aAsVR65s4MKF9mWneRJd-25" edge="1">
          <mxGeometry width="160" relative="1" as="geometry">
            <mxPoint x="750" y="-282" as="sourcePoint" />
            <mxPoint x="1010" y="-320" as="targetPoint" />
          </mxGeometry>
        </mxCell>
        <mxCell id="qYE4wkv7r3WHgoEgIhjc-172" value="" style="endArrow=diamondThin;endFill=1;endSize=24;html=1;rounded=0;entryX=0.003;entryY=0.068;entryDx=0;entryDy=0;entryPerimeter=0;exitX=0.996;exitY=0.389;exitDx=0;exitDy=0;exitPerimeter=0;" parent="WIyWlLk6GJQsqaUBKTNV-1" source="aAsVR65s4MKF9mWneRJd-75" target="aAsVR65s4MKF9mWneRJd-22" edge="1">
          <mxGeometry width="160" relative="1" as="geometry">
            <mxPoint x="830" y="-340" as="sourcePoint" />
            <mxPoint x="767.25" y="-369" as="targetPoint" />
          </mxGeometry>
        </mxCell>
      </root>
    </mxGraphModel>
  </diagram>
</mxfile>
